<svg width="87" height="26" viewBox="0 0 87 26" fill="none" xmlns="http://www.w3.org/2000/svg">
<path d="M15.5798 0.159998C16.1318 0.159998 16.6118 0.315998 17.0198 0.627998C17.4518 0.939999 17.7398 1.372 17.8838 1.924L24.6878 25H17.7758L13.4198 7.864C13.3238 7.456 13.2398 7.024 13.1678 6.568C13.0958 6.088 13.0238 5.644 12.9518 5.236H11.9798C11.9318 5.644 11.8598 6.088 11.7638 6.568C11.6918 7.024 11.6078 7.456 11.5118 7.864L7.15583 25H0.243828L7.04783 1.924C7.19183 1.372 7.46783 0.939999 7.87583 0.627998C8.30783 0.315998 8.79983 0.159998 9.35183 0.159998H15.5798ZM18.9998 14.236V19.096H5.93183V14.236H18.9998ZM33.3259 0.159998V18.052C33.3259 18.532 33.4819 18.916 33.7939 19.204C34.1059 19.468 34.5259 19.6 35.0539 19.6H43.5499L43.8739 24.676C42.0739 24.892 40.1779 25.012 38.1859 25.036C36.1939 25.084 34.2259 25.108 32.2819 25.108C30.4819 25.108 29.0779 24.604 28.0699 23.596C27.0859 22.588 26.5939 21.28 26.5939 19.672V0.159998H33.3259ZM67.4494 0.159998L61.6174 12.292L67.9534 25H61.1854L55.3174 12.292L60.7174 0.159998H67.4494ZM51.5014 0.159998L56.9014 12.292L51.0334 25H44.2654L50.6014 12.292L44.7694 0.159998H51.5014ZM59.2054 10.276V14.164H52.5454V10.276H59.2054ZM77.1013 6.604C78.0373 6.604 79.0333 6.64 80.0893 6.712C81.1693 6.784 82.2253 6.868 83.2573 6.964C84.2893 7.06 85.1773 7.192 85.9213 7.36L85.4893 11.248C84.3133 11.248 83.1253 11.248 81.9253 11.248C80.7493 11.224 79.6093 11.212 78.5053 11.212C77.6413 11.212 76.9933 11.224 76.5613 11.248C76.1293 11.272 75.8293 11.344 75.6613 11.464C75.5173 11.56 75.4453 11.752 75.4453 12.04C75.4453 12.4 75.6013 12.64 75.9133 12.76C76.2253 12.88 76.8013 13.06 77.6413 13.3L82.0333 14.38C83.5933 14.788 84.7453 15.388 85.4893 16.18C86.2333 16.948 86.6053 18.112 86.6053 19.672C86.6053 21.16 86.3173 22.324 85.7413 23.164C85.1893 23.98 84.2893 24.556 83.0413 24.892C81.7933 25.228 80.1733 25.396 78.1813 25.396C77.3653 25.396 76.1653 25.36 74.5813 25.288C72.9973 25.216 71.2693 25.024 69.3973 24.712L69.7933 20.788C70.1533 20.788 70.6693 20.8 71.3413 20.824C72.0373 20.824 72.8053 20.824 73.6453 20.824C74.4853 20.824 75.3133 20.824 76.1293 20.824C77.3053 20.824 78.1933 20.812 78.7933 20.788C79.3933 20.74 79.7893 20.644 79.9813 20.5C80.1973 20.356 80.3053 20.14 80.3053 19.852C80.3053 19.492 80.1253 19.252 79.7653 19.132C79.4053 18.988 78.7693 18.796 77.8573 18.556L73.6453 17.44C72.4213 17.104 71.4733 16.672 70.8013 16.144C70.1533 15.616 69.7093 14.992 69.4693 14.272C69.2293 13.552 69.1093 12.724 69.1093 11.788C69.1093 10.612 69.3613 9.652 69.8653 8.908C70.3693 8.14 71.1973 7.564 72.3493 7.18C73.5253 6.796 75.1093 6.604 77.1013 6.604Z" fill="#FF164E"/>
</svg>
