<svg width="276" height="24" viewBox="0 0 276 24" fill="none" xmlns="http://www.w3.org/2000/svg">
<path d="M14.0658 0.919998C14.5564 0.919998 14.9831 1.05866 15.3458 1.336C15.7298 1.61333 15.9858 1.99733 16.1138 2.488L22.1618 23H16.0178L12.1458 7.768C12.0604 7.40533 11.9858 7.02133 11.9218 6.616C11.8578 6.18933 11.7938 5.79467 11.7298 5.432H10.8658C10.8231 5.79467 10.7591 6.18933 10.6738 6.616C10.6098 7.02133 10.5351 7.40533 10.4498 7.768L6.57775 23H0.43375L6.48175 2.488C6.60975 1.99733 6.85508 1.61333 7.21775 1.336C7.60175 1.05866 8.03908 0.919998 8.52975 0.919998H14.0658ZM17.1058 13.432V17.752H5.48975V13.432H17.1058ZM29.84 0.919998V16.824C29.84 17.2507 29.9787 17.592 30.256 17.848C30.5333 18.0827 30.9067 18.2 31.376 18.2H38.928L39.216 22.712C37.616 22.904 35.9307 23.0107 34.16 23.032C32.3893 23.0747 30.64 23.096 28.912 23.096C27.312 23.096 26.064 22.648 25.168 21.752C24.2933 20.856 23.856 19.6933 23.856 18.264V0.919998H29.84ZM60.172 0.919998L54.988 11.704L60.62 23H54.604L49.388 11.704L54.188 0.919998H60.172ZM45.996 0.919998L50.796 11.704L45.58 23H39.564L45.196 11.704L40.012 0.919998H45.996ZM52.844 9.912V13.368H46.924V9.912H52.844ZM68.7515 6.648C69.5835 6.648 70.4688 6.68 71.4075 6.744C72.3675 6.808 73.3062 6.88267 74.2235 6.968C75.1408 7.05333 75.9302 7.17067 76.5915 7.32L76.2075 10.776C75.1622 10.776 74.1062 10.776 73.0395 10.776C71.9942 10.7547 70.9808 10.744 69.9995 10.744C69.2315 10.744 68.6555 10.7547 68.2715 10.776C67.8875 10.7973 67.6208 10.8613 67.4715 10.968C67.3435 11.0533 67.2795 11.224 67.2795 11.48C67.2795 11.8 67.4182 12.0133 67.6955 12.12C67.9728 12.2267 68.4848 12.3867 69.2315 12.6L73.1355 13.56C74.5222 13.9227 75.5462 14.456 76.2075 15.16C76.8688 15.8427 77.1995 16.8773 77.1995 18.264C77.1995 19.5867 76.9435 20.6213 76.4315 21.368C75.9408 22.0933 75.1408 22.6053 74.0315 22.904C72.9222 23.2027 71.4822 23.352 69.7115 23.352C68.9862 23.352 67.9195 23.32 66.5115 23.256C65.1035 23.192 63.5675 23.0213 61.9035 22.744L62.2555 19.256C62.5755 19.256 63.0342 19.2667 63.6315 19.288C64.2502 19.288 64.9328 19.288 65.6795 19.288C66.4262 19.288 67.1622 19.288 67.8875 19.288C68.9328 19.288 69.7222 19.2773 70.2555 19.256C70.7888 19.2133 71.1408 19.128 71.3115 19C71.5035 18.872 71.5995 18.68 71.5995 18.424C71.5995 18.104 71.4395 17.8907 71.1195 17.784C70.7995 17.656 70.2342 17.4853 69.4235 17.272L65.6795 16.28C64.5915 15.9813 63.7488 15.5973 63.1515 15.128C62.5755 14.6587 62.1808 14.104 61.9675 13.464C61.7542 12.824 61.6475 12.088 61.6475 11.256C61.6475 10.2107 61.8715 9.35733 62.3195 8.696C62.7675 8.01333 63.5035 7.50133 64.5275 7.16C65.5728 6.81867 66.9808 6.648 68.7515 6.648Z" fill="#FF164E"/>
<path d="M95.8303 0.919998C96.0863 0.919998 96.3103 0.994665 96.5023 1.144C96.6943 1.272 96.8223 1.45333 96.8863 1.688L103.99 23H101.078L95.3503 4.888C95.2649 4.58933 95.1689 4.29067 95.0623 3.992C94.9769 3.672 94.8916 3.37333 94.8063 3.096H93.9103C93.8249 3.37333 93.7396 3.672 93.6543 3.992C93.5689 4.29067 93.4729 4.58933 93.3663 4.888L87.6383 23H84.7263L91.8303 1.688C91.8943 1.45333 92.0223 1.272 92.2143 1.144C92.4063 0.994665 92.6303 0.919998 92.8863 0.919998H95.8303ZM99.9263 13.656V16.088H88.7263V13.656H99.9263ZM109.817 0.919998V18.52C109.817 19.2453 109.987 19.7787 110.329 20.12C110.691 20.4613 111.235 20.632 111.961 20.632H119.929L120.057 22.808C118.67 22.9147 117.251 22.9787 115.801 23C114.371 23.0213 112.942 23.032 111.513 23.032C109.891 23.032 108.739 22.6373 108.057 21.848C107.374 21.0587 107.033 20.0667 107.033 18.872V0.919998H109.817ZM139.086 0.919998L133.262 11.576L139.502 23H136.43L130.382 11.576L136.046 0.919998H139.086ZM125.006 0.919998L130.67 11.576L124.622 23H121.55L127.758 11.576L121.966 0.919998H125.006ZM132.206 10.456V12.632H128.814V10.456H132.206ZM156.272 0.535999C157.317 0.557332 158.394 0.610666 159.504 0.695999C160.613 0.781333 161.722 0.941332 162.832 1.176L162.64 3.224C161.722 3.18133 160.709 3.14933 159.6 3.128C158.49 3.08533 157.424 3.064 156.4 3.064C155.61 3.064 154.928 3.096 154.352 3.16C153.797 3.20267 153.338 3.33067 152.976 3.544C152.613 3.736 152.346 4.06667 152.176 4.536C152.026 4.984 151.952 5.61333 151.952 6.424C151.952 7.64 152.165 8.49333 152.592 8.984C153.04 9.45333 153.754 9.80533 154.736 10.04L159.216 11.16C160.922 11.5653 162.085 12.28 162.704 13.304C163.344 14.3067 163.664 15.6613 163.664 17.368C163.664 18.648 163.514 19.6827 163.216 20.472C162.938 21.2613 162.501 21.8693 161.904 22.296C161.306 22.7013 160.538 22.9787 159.6 23.128C158.661 23.2987 157.552 23.384 156.272 23.384C155.546 23.384 154.597 23.352 153.424 23.288C152.272 23.224 150.938 23.0533 149.424 22.776L149.616 20.696C150.874 20.7387 151.888 20.7813 152.656 20.824C153.424 20.8453 154.085 20.856 154.64 20.856C155.194 20.856 155.77 20.856 156.368 20.856C157.498 20.856 158.384 20.7707 159.024 20.6C159.685 20.4293 160.144 20.088 160.4 19.576C160.677 19.064 160.816 18.3067 160.816 17.304C160.816 16.4507 160.72 15.7893 160.528 15.32C160.336 14.8507 160.026 14.4987 159.6 14.264C159.194 14.008 158.672 13.8053 158.032 13.656L153.456 12.504C151.856 12.0987 150.725 11.3947 150.064 10.392C149.424 9.38933 149.104 8.04533 149.104 6.36C149.104 5.08 149.242 4.056 149.52 3.288C149.818 2.49866 150.256 1.912 150.832 1.528C151.429 1.12267 152.176 0.855998 153.072 0.727999C153.968 0.599999 155.034 0.535999 156.272 0.535999ZM172.129 0.887999C173.196 0.887999 174.263 0.887999 175.329 0.887999C176.417 0.887999 177.484 0.909332 178.529 0.952C179.596 0.973333 180.62 1.016 181.601 1.08L181.473 3.288H172.609C171.948 3.288 171.457 3.45867 171.137 3.8C170.839 4.12 170.689 4.65333 170.689 5.4V18.52C170.689 19.2667 170.839 19.8107 171.137 20.152C171.457 20.4933 171.948 20.664 172.609 20.664H181.473L181.601 22.84C180.62 22.904 179.596 22.9467 178.529 22.968C177.484 22.9893 176.417 23 175.329 23C174.263 23.0213 173.196 23.032 172.129 23.032C170.828 23.032 169.793 22.6907 169.025 22.008C168.279 21.304 167.895 20.3653 167.873 19.192V4.728C167.895 3.53333 168.279 2.59467 169.025 1.912C169.793 1.22933 170.828 0.887999 172.129 0.887999ZM168.449 10.2H180.225V12.472H168.449V10.2ZM197.993 7.032C198.675 7.032 199.401 7.05333 200.169 7.096C200.937 7.13867 201.694 7.192 202.441 7.256C203.209 7.32 203.913 7.40533 204.553 7.512L204.329 9.496C203.347 9.45333 202.355 9.42133 201.353 9.4C200.371 9.35733 199.39 9.336 198.409 9.336C197.449 9.31467 196.691 9.336 196.137 9.4C195.582 9.464 195.177 9.63467 194.921 9.912C194.686 10.1893 194.569 10.6587 194.569 11.32C194.569 12.1307 194.761 12.664 195.145 12.92C195.529 13.176 196.094 13.3893 196.841 13.56L201.385 14.584C202.622 14.8827 203.529 15.3413 204.105 15.96C204.702 16.5787 205.001 17.5493 205.001 18.872C205.001 20.152 204.755 21.112 204.265 21.752C203.795 22.392 203.07 22.8187 202.089 23.032C201.107 23.2453 199.859 23.352 198.345 23.352C197.79 23.352 196.958 23.3307 195.849 23.288C194.761 23.2453 193.555 23.1173 192.233 22.904L192.424 20.92C192.937 20.9413 193.481 20.9733 194.057 21.016C194.633 21.0373 195.23 21.048 195.849 21.048C196.489 21.048 197.139 21.048 197.801 21.048C198.974 21.048 199.891 20.9947 200.553 20.888C201.214 20.7813 201.683 20.5787 201.961 20.28C202.238 19.96 202.377 19.4907 202.377 18.872C202.377 18.104 202.153 17.592 201.705 17.336C201.257 17.08 200.659 16.8667 199.913 16.696L195.433 15.672C194.579 15.4587 193.897 15.1813 193.385 14.84C192.873 14.4773 192.499 14.0187 192.265 13.464C192.03 12.888 191.913 12.1733 191.913 11.32C191.913 10.104 192.126 9.18667 192.553 8.568C192.979 7.94933 193.641 7.53333 194.536 7.32C195.433 7.10667 196.585 7.01067 197.993 7.032ZM215.651 7.032C217.443 7.032 218.872 7.29867 219.939 7.832C221.027 8.36533 221.805 9.24 222.275 10.456C222.744 11.6507 222.979 13.24 222.979 15.224C222.979 17.208 222.744 18.808 222.275 20.024C221.805 21.2187 221.027 22.0827 219.939 22.616C218.872 23.1493 217.443 23.416 215.651 23.416C213.88 23.416 212.451 23.1493 211.363 22.616C210.296 22.0827 209.517 21.2187 209.027 20.024C208.557 18.808 208.323 17.208 208.323 15.224C208.323 13.24 208.557 11.6507 209.027 10.456C209.517 9.24 210.296 8.36533 211.363 7.832C212.451 7.29867 213.88 7.032 215.651 7.032ZM215.651 9.336C214.52 9.336 213.624 9.51733 212.963 9.88C212.323 10.2213 211.864 10.8187 211.587 11.672C211.309 12.5253 211.171 13.7093 211.171 15.224C211.171 16.7387 211.309 17.9227 211.587 18.776C211.864 19.6293 212.323 20.2373 212.963 20.6C213.624 20.9413 214.52 21.112 215.651 21.112C216.781 21.112 217.677 20.9413 218.339 20.6C219 20.2373 219.469 19.6293 219.747 18.776C220.024 17.9227 220.163 16.7387 220.163 15.224C220.163 13.7093 220.024 12.5253 219.747 11.672C219.469 10.8187 219 10.2213 218.339 9.88C217.677 9.51733 216.781 9.336 215.651 9.336ZM233.902 7.032C234.371 7.032 234.894 7.05333 235.47 7.096C236.046 7.13867 236.633 7.21333 237.23 7.32C237.849 7.42667 238.414 7.576 238.926 7.768L238.574 9.528C237.87 9.464 237.123 9.42133 236.334 9.4C235.566 9.35733 234.905 9.336 234.35 9.336C233.113 9.336 232.131 9.50667 231.406 9.848C230.681 10.1893 230.158 10.7867 229.838 11.64C229.518 12.4933 229.358 13.6773 229.358 15.192C229.358 16.7067 229.518 17.9013 229.838 18.776C230.158 19.6293 230.681 20.2267 231.406 20.568C232.131 20.9093 233.113 21.08 234.35 21.08C234.67 21.08 235.086 21.0693 235.598 21.048C236.11 21.0267 236.654 20.9947 237.23 20.952C237.827 20.9093 238.393 20.8453 238.926 20.76L239.214 22.584C238.425 22.8613 237.561 23.064 236.622 23.192C235.705 23.32 234.787 23.384 233.87 23.384C232.078 23.384 230.638 23.1173 229.55 22.584C228.462 22.0507 227.673 21.1867 227.182 19.992C226.713 18.7973 226.478 17.1973 226.478 15.192C226.478 13.1867 226.723 11.5867 227.214 10.392C227.705 9.19733 228.494 8.344 229.582 7.832C230.67 7.29867 232.11 7.032 233.902 7.032ZM245.718 7.416V23H243.03V7.416H245.718ZM245.014 0.792C245.569 0.792 245.846 1.06933 245.846 1.624V3.448C245.846 4.00267 245.569 4.28 245.014 4.28H243.734C243.18 4.28 242.902 4.00267 242.902 3.448V1.624C242.902 1.06933 243.18 0.792 243.734 0.792H245.014ZM258.2 7.032C259.352 7.032 260.322 7.192 261.112 7.512C261.922 7.81067 262.53 8.32267 262.936 9.048C263.341 9.77333 263.544 10.7653 263.544 12.024V23H261.4L260.984 19.608L260.792 19.256V12.024C260.792 11.064 260.568 10.3813 260.12 9.976C259.693 9.54933 258.861 9.336 257.624 9.336C256.813 9.336 255.789 9.37867 254.552 9.464C253.336 9.54933 252.13 9.64533 250.936 9.752L250.68 7.736C251.405 7.608 252.194 7.49067 253.048 7.384C253.922 7.27733 254.808 7.192 255.704 7.128C256.6 7.064 257.432 7.032 258.2 7.032ZM262.264 13.4L262.232 15.448L254.776 15.48C254.029 15.5013 253.506 15.704 253.208 16.088C252.909 16.4507 252.76 16.9627 252.76 17.624V18.616C252.76 19.4267 252.952 20.024 253.336 20.408C253.72 20.7707 254.338 20.952 255.192 20.952C255.789 20.952 256.461 20.8453 257.208 20.632C257.976 20.3973 258.744 20.0453 259.512 19.576C260.28 19.1067 260.984 18.5093 261.624 17.784V19.8C261.389 20.0987 261.048 20.4507 260.6 20.856C260.173 21.24 259.65 21.624 259.032 22.008C258.434 22.3707 257.762 22.68 257.016 22.936C256.29 23.1707 255.501 23.288 254.648 23.288C253.73 23.288 252.92 23.128 252.216 22.808C251.512 22.4667 250.957 21.976 250.552 21.336C250.168 20.6747 249.976 19.8747 249.976 18.936V17.24C249.976 16.024 250.349 15.0853 251.096 14.424C251.864 13.7413 252.93 13.4 254.296 13.4H262.264ZM271.154 0.599998L271.122 18.712C271.122 19.3947 271.304 19.9173 271.666 20.28C272.05 20.6213 272.584 20.792 273.266 20.792H274.77L275.09 22.872C274.898 22.9573 274.621 23.032 274.258 23.096C273.917 23.16 273.554 23.2027 273.17 23.224C272.808 23.2667 272.498 23.288 272.242 23.288C271.09 23.288 270.162 22.9467 269.458 22.264C268.776 21.5813 268.434 20.6 268.434 19.32V0.599998H271.154Z" fill="white"/>
</svg>
