<svg width="24" height="24" viewBox="0 0 24 24" fill="none" xmlns="http://www.w3.org/2000/svg">
<rect width="24" height="24" fill="#D9D9D9"/>
<path d="M10.1309 3.1C10.2842 3.1 10.4176 3.14333 10.5309 3.23C10.6509 3.31667 10.7309 3.43667 10.7709 3.59L12.6609 10H10.7409L9.5309 5.24C9.50423 5.12667 9.4809 5.00667 9.4609 4.88C9.4409 4.74667 9.4209 4.62333 9.4009 4.51H9.1309C9.11757 4.62333 9.09757 4.74667 9.0709 4.88C9.0509 5.00667 9.02757 5.12667 9.0009 5.24L7.7909 10H5.8709L7.7609 3.59C7.8009 3.43667 7.87757 3.31667 7.9909 3.23C8.1109 3.14333 8.24757 3.1 8.4009 3.1H10.1309ZM11.0809 7.01V8.36H7.4509V7.01H11.0809ZM15.0604 3.1V8.07C15.0604 8.20333 15.1037 8.31 15.1904 8.39C15.277 8.46333 15.3937 8.5 15.5404 8.5H17.9004L17.9904 9.91C17.4904 9.97 16.9637 10.0033 16.4104 10.01C15.857 10.0233 15.3104 10.03 14.7704 10.03C14.2704 10.03 13.8804 9.89 13.6004 9.61C13.327 9.33 13.1904 8.96667 13.1904 8.52V3.1H15.0604ZM12.4346 15.1L10.8146 18.47L12.5746 22H10.6946L9.06461 18.47L10.5646 15.1H12.4346ZM8.00461 15.1L9.50461 18.47L7.87461 22H5.99461L7.75461 18.47L6.13461 15.1H8.00461ZM10.1446 17.91V18.99H8.29461V17.91H10.1446ZM15.1157 16.89C15.3757 16.89 15.6524 16.9 15.9457 16.92C16.2457 16.94 16.539 16.9633 16.8257 16.99C17.1124 17.0167 17.359 17.0533 17.5657 17.1L17.4457 18.18C17.119 18.18 16.789 18.18 16.4557 18.18C16.129 18.1733 15.8124 18.17 15.5057 18.17C15.2657 18.17 15.0857 18.1733 14.9657 18.18C14.8457 18.1867 14.7624 18.2067 14.7157 18.24C14.6757 18.2667 14.6557 18.32 14.6557 18.4C14.6557 18.5 14.699 18.5667 14.7857 18.6C14.8724 18.6333 15.0324 18.6833 15.2657 18.75L16.4857 19.05C16.919 19.1633 17.239 19.33 17.4457 19.55C17.6524 19.7633 17.7557 20.0867 17.7557 20.52C17.7557 20.9333 17.6757 21.2567 17.5157 21.49C17.3624 21.7167 17.1124 21.8767 16.7657 21.97C16.419 22.0633 15.969 22.11 15.4157 22.11C15.189 22.11 14.8557 22.1 14.4157 22.08C13.9757 22.06 13.4957 22.0067 12.9757 21.92L13.0857 20.83C13.1857 20.83 13.329 20.8333 13.5157 20.84C13.709 20.84 13.9224 20.84 14.1557 20.84C14.389 20.84 14.619 20.84 14.8457 20.84C15.1724 20.84 15.419 20.8367 15.5857 20.83C15.7524 20.8167 15.8624 20.79 15.9157 20.75C15.9757 20.71 16.0057 20.65 16.0057 20.57C16.0057 20.47 15.9557 20.4033 15.8557 20.37C15.7557 20.33 15.579 20.2767 15.3257 20.21L14.1557 19.9C13.8157 19.8067 13.5524 19.6867 13.3657 19.54C13.1857 19.3933 13.0624 19.22 12.9957 19.02C12.929 18.82 12.8957 18.59 12.8957 18.33C12.8957 18.0033 12.9657 17.7367 13.1057 17.53C13.2457 17.3167 13.4757 17.1567 13.7957 17.05C14.1224 16.9433 14.5624 16.89 15.1157 16.89Z" fill="#FF164E"/>
</svg>
